PathFileType	4	(X/Y/Z)	Trial12_Gait_LowerBody_markers_cropped.trc
DataRate	CameraRate	NumFrames	NumMarkers	Units	OrigDataRate	OrigDataStartFrame	OrigNumFrames
200	200	5	27	m	200	0	101
Frame#	Time	R_ASIS			L_ASIS			Sacral			L_Thigh_Superior			L_Thigh_Posterior			L_Thigh_Inferior			L_Thigh_Lateral			L_Shank_Posterior			L_Shank_Superior			L_Shank_Lateral			L_Shank_Inferior			L_Midfoot_Superior			L_Heel			L_Midfoot_Lateral			L_Toe			R_Thigh_Posterior			R_Thigh_Superior			R_Thigh_Lateral			R_Thigh_Inferior			R_Shank_Posterior			R_Shank_Superior			R_Shank_Lateral			R_Shank_Inferior			R_Midfoot_Superior			R_Heel			R_Midfoot_Lateral			R_Toe
		X1	Y1	Z1	X2	Y2	Z2	X3	Y3	Z3	X4	Y4	Z4	X5	Y5	Z5	X6	Y6	Z6	X7	Y7	Z7	X8	Y8	Z8	X9	Y9	Z9	X10	Y10	Z10	X11	Y11	Z11	X12	Y12	Z12	X13	Y13	Z13	X14	Y14	Z14	X15	Y15	Z15	X16	Y16	Z16	X17	Y17	Z17	X18	Y18	Z18	X19	Y19	Z19	X20	Y20	Z20	X21	Y21	Z21	X22	Y22	Z22	X23	Y23	Z23	X24	Y24	Z24	X25	Y25	Z25	X26	Y26	Z26	X27	Y27	Z27

1	   0.000	    0.79789513918748	    0.95990586810248	    0.60325342123615	    0.81861312938054	    0.95577276543700	    0.35260682844148	    0.61458598155425	    1.02212072676525	    0.47567328878061	    0.75558355945048	    0.72310503301039	    0.28570810790466	    0.68018157861562	    0.72617774025118	    0.28188290997060	    0.74650346681908	    0.63058536912009	    0.30627874828389	    0.66787539407143	    0.63877139461987	    0.29975157099923	    0.55712181388958	    0.39761362651073	    0.31590070382497	    0.61779165334791	    0.35275470999516	    0.32068720211293	    0.52578859495615	    0.33338158754770	    0.31360226566578	    0.58475821504367	    0.30432299329956	    0.31919200961006	    0.54795985901376	    0.09420543722980	    0.39838177530433	    0.37249050053368	    0.09265450170749	    0.43238269761966	    0.45991451980186	    0.05002131917811	    0.36064615973872	    0.65418546314424	    0.03079676264984	    0.39070824369173	    0.75023133171158	    0.75072858216902	    0.67063051322315	    0.82354270466638	    0.77048401097107	    0.66135653531777	    0.78168238930389	    0.65621299470432	    0.67415085570347	    0.84921565779176	    0.67877202853632	    0.66822162653586	    0.86332454277066	    0.34921793338152	    0.65933245134217	    0.93773620846096	    0.36803298330133	    0.65571265919262	    0.88893709158552	    0.28318628647133	    0.64961603647457	    0.95564438291174	    0.31142630970863	    0.64611890760810	    1.07888029624134	    0.14378436782471	    0.58453685759074	    0.94325246569392	    0.03691260247739	    0.54329312939157	    1.04004696826665	    0.04520049109101	    0.62124284355048	    1.20691554325974	    0.15684109255282	    0.59883954621555
2	   0.005	    0.79903206937030	    0.95844861317978	    0.60395518964596	    0.81863617773478	    0.95448461989824	    0.35325435527862	    0.61493760261641	    1.02034290310385	    0.47750776778321	    0.75465307914570	    0.72194225302580	    0.28629958751440	    0.67920962290619	    0.72523345313496	    0.28263297490622	    0.74534513113178	    0.62936458217278	    0.30670488515997	    0.66673554148266	    0.63778290701496	    0.30036340734227	    0.55377481150397	    0.39852825022201	    0.31610627103855	    0.61341437164062	    0.35226327787671	    0.32071923624657	    0.52096695143302	    0.33509688952245	    0.31354265965932	    0.57923072708194	    0.30457593785675	    0.31907962426203	    0.53739621105420	    0.09469744270365	    0.39769959030977	    0.36203537068448	    0.09772717830281	    0.43168545097452	    0.44833384780080	    0.05256199998078	    0.36021380786991	    0.64158033419834	    0.03065600023638	    0.39049379870171	    0.75162383554026	    0.74943224903823	    0.67117527271609	    0.82485951696027	    0.76930221867346	    0.66198757686331	    0.78314200693961	    0.65489844854187	    0.67412930891617	    0.85059348200776	    0.67748295037549	    0.66816569323054	    0.86277058787119	    0.34703709431383	    0.65872829187486	    0.93729162070842	    0.36524144075825	    0.65485963693278	    0.88780696755454	    0.28082279057801	    0.64882267091497	    0.95470489445650	    0.30851251446554	    0.64512091262001	    1.07582447449622	    0.14070920966945	    0.58186746634900	    0.93934053583155	    0.03533766446599	    0.54248953236337	    1.03711850678757	    0.04230904558490	    0.61921637142647	    1.20374804462857	    0.15367961634953	    0.59463226438798
3	   0.010	    0.80041786664191	    0.95712166169740	    0.60474011424445	    0.81884016585647	    0.95325616561762	    0.35396637791332	    0.61546828389768	    1.01848496139318	    0.47938669526939	    0.75414903610669	    0.72071647553859	    0.28695096656489	    0.67865746566245	    0.72412469709519	    0.28348470520067	    0.74475732838541	    0.62805400967938	    0.30718023589710	    0.66613119907188	    0.63659488975181	    0.30109472514577	    0.55115624883502	    0.39940339724579	    0.31634985372182	    0.60965293110825	    0.35167719934079	    0.32078011142394	    0.51680533796969	    0.33686050739231	    0.31354205214718	    0.57426892492720	    0.30480295024461	    0.31903229804484	    0.52715670384132	    0.09517708783197	    0.39702854361094	    0.35203680039466	    0.10335312882977	    0.43104851744011	    0.43697181709642	    0.05542488001084	    0.35983464376622	    0.62898254205181	    0.03052421241138	    0.39028889903968	    0.75368840486425	    0.74814183296852	    0.67162539361249	    0.82678987856507	    0.76831536358353	    0.66251959738796	    0.78548839348226	    0.65365198668264	    0.67378289832644	    0.85282840561767	    0.67646819170684	    0.66788537568501	    0.86233773318755	    0.34510339056480	    0.65814998451474	    0.93705262811501	    0.36212186738322	    0.65343085273837	    0.88621188855527	    0.27850636518695	    0.64799946743281	    0.95344649820701	    0.30512776297057	    0.64352724375210	    1.07071799390323	    0.13582446604515	    0.57873546281792	    0.93196704720021	    0.03443873447209	    0.54184090348665	    1.03072210853577	    0.03854977079038	    0.61728991044343	    1.19858610660720	    0.14701601501859	    0.58994653874108
4	   0.015	    0.80204986598991	    0.95594896199866	    0.60558151126244	    0.81923984177529	    0.95210155996930	    0.35471777647005	    0.61618103782388	    1.01659910105192	    0.48131252850018	    0.75409781900777	    0.71941688353086	    0.28764821748907	    0.67855293147909	    0.72282678864631	    0.28450222465145	    0.74478150127314	    0.62665387862252	    0.30768664631476	    0.66609909177857	    0.63519661840138	    0.30197289247117	    0.54931737346095	    0.40028137010133	    0.31664708562854	    0.60652617042755	    0.35103718216015	    0.32091929954214	    0.51335308599828	    0.33870455865785	    0.31366331480001	    0.56992982923968	    0.30507069236857	    0.31907846841648	    0.51732952096604	    0.09562366683114	    0.39640555617130	    0.34264419541420	    0.10963685356267	    0.43053597248951	    0.42590489048051	    0.05869214234170	    0.35954828308132	    0.61640002085808	    0.03039742964419	    0.39009744351853	    0.75629050659069	    0.74689465573761	    0.67201462812141	    0.82924842079743	    0.76743430788658	    0.66298915897717	    0.78842076980591	    0.65247560429853	    0.67322188197884	    0.85566462752579	    0.67561306942245	    0.66752157976547	    0.86205176874943	    0.34335784700902	    0.65771890800985	    0.93697034937025	    0.35884887210995	    0.65163805006522	    0.88437849480617	    0.27627781862599	    0.64717017088679	    0.95200568854919	    0.30152553161106	    0.64147463291553	    1.06443655861702	    0.12973509977904	    0.57556644202327	    0.92242124102875	    0.03445243110870	    0.54124090432169	    1.02201272386090	    0.03423433860791	    0.61543523704852	    1.19224606316695	    0.13765004603149	    0.58527626838177
5	   0.020	    0.80387323696578	    0.95496659591305	    0.60642402073006	    0.81983735734728	    0.95103956655810	    0.35546943940020	    0.61705410743253	    1.01478159115556	    0.48326208333873	    0.75455011270170	    0.71803624652051	    0.28841561348904	    0.67895249351652	    0.72132407227831	    0.28570587177617	    0.74548595598098	    0.62516585338320	    0.30822467625247	    0.66672245829918	    0.63357876972699	    0.30300678470362	    0.54834114112829	    0.40122630696160	    0.31701794029760	    0.60412207681405	    0.35041253409674	    0.32115992246627	    0.51069988231788	    0.34070031665798	    0.31395522550562	    0.56630441347222	    0.30545168364486	    0.31925523438157	    0.50800195574694	    0.09601220513237	    0.39588288008059	    0.33404832991023	    0.11669886906413	    0.43021302580431	    0.41523709140477	    0.06246064092762	    0.35939048322977	    0.60384283888703	    0.03026976577365	    0.38992627828468	    0.75917757580639	    0.74581379948193	    0.67237799079641	    0.83203334069039	    0.76664176011143	    0.66343478728134	    0.79154070641110	    0.65145048266756	    0.67262969672630	    0.85872858987978	    0.67486121821533	    0.66721983840328	    0.86186996476827	    0.34184478379783	    0.65748885471484	    0.93696061194159	    0.35573155557917	    0.64992160943378	    0.88252771945420	    0.27429432287988	    0.64635159849797	    0.95054494303734	    0.29810471899082	    0.63935932176567	    1.05783457042174	    0.12325573620311	    0.57280717738634	    0.91200748657112	    0.03534092514901	    0.54073801225549	    1.01221225055365	    0.02978692098422	    0.61374838237244	    1.18558036571495	    0.12661427487772	    0.58110427171680
